<svg width="24" height="24" viewBox="0 0 24 24" fill="none" xmlns="http://www.w3.org/2000/svg">
<g clip-path="url(#clip0_311_8384)">
<path d="M0 12C0 18.6274 5.37258 24 12 24C18.6274 24 24 18.6274 24 12C24 5.37258 18.6274 0 12 0C5.37258 0 0 5.37258 0 12Z" fill="#8DFFA8"/>
<path fill-rule="evenodd" clip-rule="evenodd" d="M10.1064 11.4691L5.4024 6.76514H2.67648L7.49184 11.5805C6.28848 11.9271 5.40192 13.0411 5.40192 14.3515C5.40192 15.937 6.69936 17.2344 8.2848 17.2344H13.1458H15.8717L13.944 15.3067H11.2181H8.2848C7.7592 15.3067 7.3296 14.8767 7.3296 14.3515C7.3296 13.8259 7.75968 13.3963 8.2848 13.3963H9.30768H12.0336L10.1064 11.4691Z" fill="#0A090E"/>
<path fill-rule="evenodd" clip-rule="evenodd" d="M13.8941 12.5309L18.5981 17.2349H21.324L16.5082 12.4191C17.7115 12.0725 18.5981 10.9584 18.5981 9.64802C18.5981 8.06258 17.3006 6.76514 15.7152 6.76514H10.8542H8.12832L10.056 8.69282H12.7819H15.7152C16.2408 8.69282 16.6704 9.1229 16.6704 9.64802C16.6704 10.1736 16.2403 10.6032 15.7152 10.6032H14.6923H11.9664L13.8941 12.5309Z" fill="#0A090E"/>
</g>
<defs>
<clipPath id="clip0_311_8384">
<rect width="24" height="24" fill="white"/>
</clipPath>
</defs>
</svg>
