<svg width="40" height="41" viewBox="0 0 40 41" fill="none" xmlns="http://www.w3.org/2000/svg">
<rect y="0.333334" width="40" height="40" rx="20" fill="#F0F02D"/>
<g clip-path="url(#clip0_655_42086)">
<path d="M32.0437 30.69H27.4913L25.2136 26.746L24.0763 24.774L23.9103 24.4884C25.2176 24.1254 26.3851 23.4375 27.3234 22.5124L28.6287 24.774L29.768 26.746L32.0437 30.69Z" fill="#0A090E"/>
<path d="M29.6856 16.887C29.6856 17.5668 29.5991 18.2295 29.4372 18.859C29.2562 19.5589 28.9836 20.2196 28.6307 20.831C28.2717 21.4505 27.8322 22.0156 27.3234 22.5134C26.3851 23.4385 25.2176 24.1264 23.9103 24.4894C23.2376 24.6744 22.5296 24.775 21.7986 24.775C18.8803 24.775 16.3311 23.1902 14.9664 20.831H21.7986C23.2577 20.831 24.5318 20.0386 25.2116 18.859H25.2136V18.857C25.5505 18.2778 25.7426 17.605 25.7426 16.887C25.7426 16.169 25.5495 15.4952 25.2126 14.915C24.5328 13.7354 23.2587 12.943 21.7996 12.943H28.6317C28.9846 13.5524 29.2592 14.2151 29.4382 14.915C29.6001 15.5455 29.6866 16.2062 29.6866 16.887H29.6856Z" fill="#0A090E"/>
<path d="M21.7986 24.774H12.6907L10.415 20.83H14.9654C16.33 23.1882 18.8793 24.774 21.7975 24.774H21.7986Z" fill="#0A090E"/>
<path d="M23.7696 16.887C23.7696 17.9751 22.8866 18.859 21.7976 18.859H9.2757L7 14.915H18.3835V14.917L18.3855 14.915H21.7986C22.5125 14.915 23.139 15.2951 23.484 15.8653L23.5312 15.9457C23.6831 16.2253 23.7696 16.5471 23.7696 16.886V16.887Z" fill="#0A090E"/>
<path d="M28.6307 12.944H14.9685V12.942C15.3254 12.3225 15.7649 11.7574 16.2737 11.2596C17.212 10.3365 18.3795 9.64862 19.6868 9.28559C20.3595 9.10056 21.0675 9 21.7986 9C24.7168 9 27.2661 10.5848 28.6307 12.944Z" fill="#0A090E"/>
<path d="M25.2136 30.69H16.1058L13.8301 26.746H22.9359L25.2136 30.69Z" fill="#0A090E"/>
</g>
<defs>
<clipPath id="clip0_655_42086">
<rect width="25.0437" height="21.69" fill="white" transform="translate(7 9)"/>
</clipPath>
</defs>
</svg>
