<svg width="24" height="24" viewBox="0 0 24 24" fill="none" xmlns="http://www.w3.org/2000/svg">
<rect width="24" height="24" rx="12" fill="#F0F02D"/>
<path opacity="0.8" d="M17.8914 17.4959L17.7612 17.2927L14.9958 12.9902H13.3829L16.7501 18.2297C16.7595 18.2443 16.7694 18.2589 16.7805 18.2723C16.9118 18.4463 17.115 18.5409 17.3216 18.5409C17.4477 18.5409 17.5744 18.5058 17.6883 18.4334C18.0035 18.2303 18.0946 17.8111 17.8926 17.4953L17.8914 17.4959Z" fill="black"/>
<path opacity="0.8" d="M9.21346 6.50503C9.07919 6.29604 9.06985 6.03041 9.18894 5.81266C9.30803 5.59491 9.53571 5.45947 9.7844 5.45947C10.0092 5.45947 10.2187 5.57331 10.3407 5.76187L11.2479 7.16062L13.7214 11.0089H12.1084L9.21346 6.50503Z" fill="black"/>
<path opacity="0.8" d="M14.6888 17.4959C14.8528 17.7516 14.83 18.0919 14.614 18.326C14.4833 18.4673 14.2947 18.5414 14.1021 18.5414C13.8855 18.5414 13.6841 18.4317 13.5662 18.2501L12.8755 17.1841L10.1802 12.9902H11.7932L14.6894 17.4953L14.6888 17.4959Z" fill="black"/>
<path d="M13.3817 18.5414H9.51295C7.52224 18.5414 5.90282 16.922 5.90282 14.9313C5.90282 13.0737 7.3004 11.5179 9.10663 11.3218H10.719H11.3233L12.203 12.6791H9.51295C9.46858 12.6791 9.42421 12.6802 9.38043 12.6832C8.19943 12.752 7.26012 13.7346 7.26012 14.9319C7.26012 16.1292 8.27007 17.1847 9.51295 17.1847H12.5013L13.3817 18.542V18.5414Z" fill="black"/>
<path d="M17.9988 9.06901C17.9988 10.9272 16.6013 12.4824 14.7944 12.678H13.182H12.5778L11.698 11.3207H12.3099L12.3087 11.3189L13.9211 11.3172L13.9234 11.3207H14.3899C15.6316 11.3207 16.6427 10.3101 16.6427 9.06784C16.6427 7.82555 15.6322 6.81502 14.3899 6.81502H11.3991L10.5182 5.45947H14.3887C16.3794 5.45947 17.9982 7.07889 17.9982 9.06901H17.9988Z" fill="black"/>
<path opacity="0.8" d="M8.64427 8.09234L7.84157 6.84362L7.75459 6.70819L7.15212 5.77121C7.02252 5.56922 6.80418 5.45947 6.58118 5.45947C6.45508 5.45947 6.3284 5.4945 6.21456 5.56689C5.90107 5.76888 5.80942 6.18395 6.00674 6.49919L6.14159 6.70819L6.22857 6.84362L7.03128 8.09234L8.90639 11.0095H10.5194L8.64427 8.09234Z" fill="black"/>
</svg>
